<?xml version="1.0" encoding="utf-8"?>
<!-- Generator: Adobe Illustrator 25.0.1, SVG Export Plug-In . SVG Version: 6.00 Build 0)  -->
<svg version="1.1" id="Capa_1" xmlns="http://www.w3.org/2000/svg" xmlns:xlink="http://www.w3.org/1999/xlink" x="0px" y="0px"
	 viewBox="0 0 810 133" style="enable-background:new 0 0 810 133;" xml:space="preserve">
<style type="text/css">
	.st0{fill:#1495C5;}
	.st1{fill:#FFFFFF;}
	.st2{enable-background:new    ;}
</style>
<path class="st0" d="M28.8,6H121l0,0v105.2c0,8.7-7.1,15.8-15.8,15.8l0,0H4l0,0V30.8C4,17.1,15.1,6,28.8,6C28.8,6,28.8,6,28.8,6z"/>
<polygon class="st1" points="24,48 28.4,48 42,78 57.3,48 61.8,48 42,88 "/>
<path class="st1" d="M90,85c0,0-3.6,1-3.8,0s0-37,0-37H90V85z"/>
<g class="st2">
	<path d="M178.2,85.4l-14.9-36.8h2.9l12.1,30.4l12.1-30.4h2.8L178.2,85.4z"/>
	<path d="M208.9,48.6h2.7v35.8h-2.7V48.6z"/>
	<path d="M258.4,77.3l1.8,1.8c-3.1,3.6-7.8,5.9-13.3,5.9c-10.3,0-17.7-8.2-17.7-18.5S236.6,48,247,48c5.2,0,9.6,2.1,12.7,5.5
		l-1.9,1.7c-2.6-2.9-6.4-4.6-10.8-4.6c-8.9,0-14.9,7.1-14.9,15.9c0,8.8,6,15.9,14.9,15.9C251.7,82.4,255.8,80.3,258.4,77.3z"/>
	<path d="M283.3,51.1h-10.8v-2.5h24.3v2.5H286v33.4h-2.7V51.1z"/>
	<path d="M308.8,66.5c0-10.3,7.5-18.5,17.7-18.5c10.2,0,17.7,8.2,17.7,18.5S336.8,85,326.6,85S308.8,76.9,308.8,66.5z M311.6,66.5
		c0,8.8,6,15.9,14.9,15.9c9,0,14.9-7.1,14.9-15.9c0-8.8-6-15.9-14.9-15.9C317.6,50.6,311.6,57.7,311.6,66.5z"/>
	<path d="M361.3,48.6h8.6c7.4,0,11.6,4.2,11.6,10.1c0,7.7-6.8,9.7-9.3,10l10.2,15.7h-3.2l-10-15.6h-5.3v15.6h-2.7V48.6z M370.1,66.3
		c5.4,0,8.7-2.9,8.7-7.6s-3.4-7.6-8.7-7.6h-6.1v15.1H370.1z"/>
	<path d="M423.9,48.6h2.7v35.8h-2.7V48.6z"/>
	<path d="M469.6,48.6L447.8,82h21v2.5h-25.6L465,51.1h-20.6v-2.5H469.6z"/>
	<path d="M518.8,66.5c0,4.8-1.6,9.2-4.3,12.4l5.1,4.6l-1.6,1.9l-5.3-4.7c-3,2.7-7,4.2-11.6,4.2c-10.3,0-17.7-8.2-17.7-18.5
		S490.7,48,501,48C511.4,48,518.8,56.2,518.8,66.5z M505.4,70.8l7,6.3c2.3-2.8,3.6-6.5,3.6-10.6c0-8.8-6-15.9-14.9-15.9
		c-8.9,0-14.9,7.1-14.9,15.9c0,8.8,6,15.9,14.9,15.9c3.8,0,7.1-1.3,9.6-3.4l-6.9-6.2L505.4,70.8z"/>
	<path d="M559,48.6h2.7V71c0,8.3-4.6,14.1-12.7,14.1c-8.2,0-12.7-5.7-12.7-14.1V48.6h2.7c0,0,0,10.3,0,22.1c0,7,3,11.7,10.1,11.7
		c7.1,0,10.1-4.8,10.1-11.7C559,58.9,559,48.6,559,48.6z"/>
	<path d="M581.7,48.6h2.7v35.8h-2.7V48.6z"/>
	<path d="M606.9,64.8h16v2.5h-16V82h17.5v2.5h-20.2V48.6h19.9v2.5h-17.2V64.8z"/>
	<path d="M642.1,48.6h8.6c7.4,0,11.6,4.2,11.6,10.1c0,7.7-6.8,9.7-9.3,10l10.2,15.7h-3.2l-10-15.6h-5.3v15.6h-2.7V48.6z M650.9,66.3
		c5.4,0,8.7-2.9,8.7-7.6s-3.4-7.6-8.7-7.6h-6.1v15.1H650.9z"/>
	<path d="M689.6,48.6c10.3,0,17.7,7.6,17.7,17.9s-7.4,17.9-17.7,17.9h-9.8V48.6H689.6z M689,82c9.4,0,15.5-6.2,15.5-15.4
		c0-9.3-6-15.4-15.5-15.4h-6.6V82H689z"/>
	<path d="M722,66.5c0-10.3,7.5-18.5,17.7-18.5c10.2,0,17.7,8.2,17.7,18.5S750,85,739.7,85C729.5,85,722,76.9,722,66.5z M724.8,66.5
		c0,8.8,6,15.9,14.9,15.9s14.9-7.1,14.9-15.9c0-8.8-6-15.9-14.9-15.9S724.8,57.7,724.8,66.5z"/>
</g>
</svg>
